Coordinates
version=1
nRows=20
nColumns=21
inDegrees=no
endheader
time	ra_wr_s_p	ra_wr_e_f	ra_cmc1_ad_ab	ra_cmc1_f_e	ra_mcp1_f_e	ra_ip1_f_e	ra_mcp2_e_f	ra_pip2_e_f	ra_dip2_e_f	ra_mcp3_e_f	ra_pip3_e_f	ra_dip3_e_f	ra_mcp4_e_f	ra_pip4_e_f	ra_dip4_e_f	ra_mcp5_e_f	ra_pip5_e_f	ra_dip5_e_f	ra_el_e_f	ra_wr_ad_ab
0.125000	-0.087458	0.087300	0.467097	0.467097	-0.420371	-0.840743	0.840743	1.120991	0.840743	0.840743	1.120991	0.840743	0.840743	1.120991	0.840743	0.840743	1.120991	0.840743	2.091284	0.000000
0.126000	-0.089291	0.087300	0.467742	0.467742	-0.420951	-0.841903	0.841903	1.122537	0.841903	0.841903	1.122537	0.841903	0.841903	1.122537	0.841903	0.841903	1.122537	0.841903	2.087561	0.000000
0.127000	-0.091150	0.087300	0.468396	0.468396	-0.421540	-0.843080	0.843080	1.124106	0.843080	0.843080	1.124106	0.843080	0.843080	1.124106	0.843080	0.843080	1.124106	0.843080	2.083784	0.000000
0.128000	-0.093037	0.087300	0.469059	0.469059	-0.422137	-0.844274	0.844274	1.125698	0.844274	0.844274	1.125698	0.844274	0.844274	1.125698	0.844274	0.844274	1.125698	0.844274	2.079951	0.000000
0.129000	-0.094952	0.087300	0.469732	0.469732	-0.422743	-0.845485	0.845485	1.127314	0.845485	0.845485	1.127314	0.845485	0.845485	1.127314	0.845485	0.845485	1.127314	0.845485	2.076062	0.000000
0.130000	-0.096894	0.087300	0.470415	0.470415	-0.423357	-0.846714	0.846714	1.128952	0.846714	0.846714	1.128952	0.846714	0.846714	1.128952	0.846714	0.846714	1.128952	0.846714	2.072117	0.000000
0.131000	-0.098864	0.087300	0.471107	0.471107	-0.423981	-0.847961	0.847961	1.130615	0.847961	0.847961	1.130615	0.847961	0.847961	1.130615	0.847961	0.847961	1.130615	0.847961	2.068115	0.000000
0.132000	-0.100863	0.087300	0.471810	0.471810	-0.424613	-0.849226	0.849226	1.132301	0.849226	0.849226	1.132301	0.849226	0.849226	1.132301	0.849226	0.849226	1.132301	0.849226	2.064056	0.000000
0.133000	-0.102889	0.087300	0.472523	0.472523	-0.425254	-0.850508	0.850508	1.134011	0.850508	0.850508	1.134011	0.850508	0.850508	1.134011	0.850508	0.850508	1.134011	0.850508	2.059940	0.000000
0.134000	-0.104945	0.087300	0.473245	0.473245	-0.425904	-0.851809	0.851809	1.135745	0.851809	0.851809	1.135745	0.851809	0.851809	1.135745	0.851809	0.851809	1.135745	0.851809	2.055765	0.000000
0.135000	-0.107029	0.087300	0.473978	0.473978	-0.426564	-0.853128	0.853128	1.137504	0.853128	0.853128	1.137504	0.853128	0.853128	1.137504	0.853128	0.853128	1.137504	0.853128	2.051531	0.000000
0.136000	-0.109142	0.087300	0.474721	0.474721	-0.427233	-0.854465	0.854465	1.139287	0.854465	0.854465	1.139287	0.854465	0.854465	1.139287	0.854465	0.854465	1.139287	0.854465	2.047238	0.000000
0.137000	-0.111285	0.087300	0.475474	0.475474	-0.427911	-0.855821	0.855821	1.141095	0.855821	0.855821	1.141095	0.855821	0.855821	1.141095	0.855821	0.855821	1.141095	0.855821	2.042886	0.000000
0.138000	-0.113458	0.087300	0.476238	0.476238	-0.428598	-0.857196	0.857196	1.142928	0.857196	0.857196	1.142928	0.857196	0.857196	1.142928	0.857196	0.857196	1.142928	0.857196	2.038473	0.000000
0.139000	-0.115660	0.087300	0.477012	0.477012	-0.429295	-0.858590	0.858590	1.144786	0.858590	0.858590	1.144786	0.858590	0.858590	1.144786	0.858590	0.858590	1.144786	0.858590	2.033999	0.000000
0.140000	-0.117893	0.087300	0.477797	0.477797	-0.430001	-0.860002	0.860002	1.146670	0.860002	0.860002	1.146670	0.860002	0.860002	1.146670	0.860002	0.860002	1.146670	0.860002	2.029464	0.000000
0.141000	-0.120156	0.087300	0.478593	0.478593	-0.430717	-0.861434	0.861434	1.148579	0.861434	0.861434	1.148579	0.861434	0.861434	1.148579	0.861434	0.861434	1.148579	0.861434	2.024868	0.000000
0.142000	-0.122450	0.087300	0.479399	0.479399	-0.431443	-0.862886	0.862886	1.150514	0.862886	0.862886	1.150514	0.862886	0.862886	1.150514	0.862886	0.862886	1.150514	0.862886	2.020209	0.000000
0.143000	-0.124774	0.087300	0.480216	0.480216	-0.432178	-0.864357	0.864357	1.152475	0.864357	0.864357	1.152475	0.864357	0.864357	1.152475	0.864357	0.864357	1.152475	0.864357	2.015488	0.000000
0.144000	-0.127129	0.087300	0.481045	0.481045	-0.432924	-0.865847	0.865847	1.154463	0.865847	0.865847	1.154463	0.865847	0.865847	1.154463	0.865847	0.865847	1.154463	0.865847	2.010703	0.000000
